<svg xmlns="http://www.w3.org/2000/svg" viewBox="0 0 320 80" width="320" height="80">
  <defs>
    <linearGradient id="brandGrad" x1="0%" y1="0%" x2="100%" y2="100%">
      <stop offset="0%" stop-color="#E63946" />
      <stop offset="100%" stop-color="#FF5964" />
    </linearGradient>
  </defs>
  
  <!-- Icon / Badge -->
  <g transform="translate(10, 10)">
    <path d="M 18 12 L 28 6 C 33 13 47 13 52 6 L 62 12 L 56 26 L 49 22 L 49 54 C 49 56 47 58 45 58 L 35 58 C 33 58 31 56 31 54 L 31 22 L 24 26 Z" fill="url(#brandGrad)" />
    <circle cx="40" cy="34" r="4" fill="#FFFFFF" />
    <path d="M 40 24 L 40 28 M 40 40 L 40 44 M 30 34 L 34 34 M 46 34 L 50 34" stroke="#FFFFFF" stroke-width="2" stroke-linecap="round" />
  </g>
  
  <!-- Typography -->
  <text x="80" y="38" font-family="'Plus Jakarta Sans', 'Outfit', 'Segoe UI', sans-serif" font-weight="900" font-size="28" fill="#0F172A" letter-spacing="-0.5">
    SKB<tspan fill="#E63946">.</tspan>
  </text>
  <text x="145" y="38" font-family="'Plus Jakarta Sans', 'Outfit', 'Segoe UI', sans-serif" font-weight="700" font-size="16" fill="#334155" letter-spacing="1.5">
    PRINTING
  </text>
  
  <text x="82" y="58" font-family="'Plus Jakarta Sans', 'Segoe UI', sans-serif" font-weight="600" font-size="11" fill="#64748B" letter-spacing="0.8">
    CUSTOM APPAREL • DUMKIBAS, NEPAL
  </text>
</svg>
